<svg width="234" height="97" xmlns="http://www.w3.org/2000/svg" xmlns:xlink="http://www.w3.org/1999/xlink">
 <defs>
  <path id="a" d="m10.004,9.905l0,-9.155l-9.016,0l0,9.156l9.016,0l0,-0.001z"/>
  <path id="c" d="m-0.084,0.738l-7.35,0l0,9.15l7.35,0l0,-9.151l0,0.001z"/>
 </defs>
 <g>
  <title>background</title>
  <rect x="-1" y="-1" width="236" height="99" id="canvas_background" fill="none"/>
 </g>
 <g>
  <title>Layer 1</title>
  <g fill="none" fill-rule="evenodd" id="svg_1">
   <path fill="#ffffff" d="m53.758,60.4l-14.134,-21.948l13.156,-19.719c2.453,-3.701 3.785,-6.66 3.811,-9.204l0,-0.242l-0.002,-0.008c-0.053,-1.646 -0.77,-3.168 -2.016,-4.332c-1.304,-1.261 -3.061,-1.89 -5.012,-1.892l-0.073,-0.002c-1.088,0 -2.097,0.188 -2.998,0.596a6.888,6.888 0 0 0 -2.37,1.756c-0.65,0.717 -1.296,1.592 -1.967,2.644c-0.645,1 -1.412,2.201 -2.325,3.62l-10.05,15.26l-9.357,-15.267c-1.925,-3.141 -3.412,-5.306 -4.613,-6.58c-1.307,-1.412 -3.193,-2.084 -5.334,-2.08l-0.014,0c-1.92,-0.01 -3.67,0.621 -5.036,1.858c-1.346,1.187 -2.142,2.72 -2.142,4.382l0,0.063l0.001,0c0.003,1.456 0.347,2.951 0.996,4.453c0.647,1.478 1.58,3.198 2.824,5.173l12.504,19.469l-14.977,21.925l0.937,0.645l-0.94,-0.644c-2.344,3.463 -3.611,6.467 -3.627,9.172l0,0.013c-0.01,2.165 0.624,4.058 2.027,5.354c1.305,1.247 3.045,1.868 4.958,1.861l0.148,0c1.153,-0.014 2.21,-0.205 3.15,-0.6a7.807,7.807 0 0 0 2.475,-1.657a13.493,13.493 0 0 0 1.666,-2.007c0.43,-0.64 1.146,-1.741 2.148,-3.324l11.895,-18.186l11.124,17.656c1.542,2.367 2.59,3.96 3.166,4.8a8.247,8.247 0 0 0 2.542,2.38c1.118,0.68 2.448,0.996 3.916,0.996l0.013,0c1.377,0 2.67,-0.306 3.81,-0.932a6.955,6.955 0 0 0 2.691,-2.596a7.08,7.08 0 0 0 0.96,-3.59c0,-1.363 -0.345,-2.759 -0.991,-4.181c-0.629,-1.389 -1.607,-3.07 -2.94,-5.085m17.763,-38.4l-0.012,0c-2.124,-0.014 -4.031,0.774 -5.395,2.298c-1.432,1.573 -2.064,3.801 -2.066,6.518l-0.048,36.788l0,0.032c-0.002,2.68 0.63,4.912 2.034,6.534c1.351,1.599 3.276,2.436 5.417,2.425l0.473,0l0.011,-0.012c1.942,-0.1 3.686,-0.896 4.993,-2.323c1.483,-1.604 2.143,-3.879 2.145,-6.623l0.05,-37.194l0,-0.064c-0.004,-2.453 -0.691,-4.56 -2.139,-6.085c-1.414,-1.514 -3.332,-2.304 -5.463,-2.294m5.233,-17.13c-1.47,-1.225 -3.234,-1.874 -5.136,-1.87l-0.008,0c-1.973,-0.008 -3.805,0.7 -5.282,2.046c-1.51,1.356 -2.318,3.218 -2.326,5.282a0.191,0.191 0 0 0 0,0.053l0,0.017l0.003,0a0.027,0.027 0 0 1 -0.004,0.01c-0.013,2.231 0.74,4.197 2.291,5.52c1.446,1.277 3.273,1.935 5.272,1.938l0.032,0l0.27,0.002l0.01,-0.005c1.853,-0.052 3.556,-0.717 4.932,-1.95c1.515,-1.34 2.277,-3.283 2.266,-5.495l0,-0.013l0,-0.129c-0.015,-2.21 -0.789,-4.129 -2.32,-5.406m68.427,8.11c0.215,-0.877 0.311,-1.716 0.314,-2.5l0,-0.221l-0.005,-0.01c-0.038,-1.145 -0.393,-2.272 -1.01,-3.336a7.711,7.711 0 0 0 -2.8,-2.797a7.543,7.543 0 0 0 -3.856,-1.052l-0.037,0c-1.786,-0.003 -3.355,0.43 -4.544,1.408c-1.058,0.857 -1.853,1.874 -2.346,3.012c-0.43,1.033 -1.044,2.74 -1.867,5.206l-14.588,43.426l-14.418,-43.13c-1.048,-3.259 -2.069,-5.66 -3.156,-7.284c-1.234,-1.854 -3.397,-2.716 -5.977,-2.702l-0.011,0c-2.185,-0.012 -4.159,0.782 -5.631,2.32c-1.45,1.464 -2.257,3.258 -2.249,5.178l0,0.034c0,0.74 0.112,1.57 0.32,2.522a21.6,21.6 0 0 0 0.798,2.7c0.29,0.775 0.572,1.57 0.859,2.382l16.3,44.8a135.46,135.46 0 0 0 1.78,4.933c0.62,1.605 1.349,3.05 2.19,4.337a10.181,10.181 0 0 0 3.534,3.294c1.498,0.859 3.292,1.26 5.312,1.258l0.044,0l0,-0.001l0.032,0c1.988,-0.005 3.761,-0.408 5.247,-1.278c1.432,-0.824 2.62,-1.915 3.5,-3.246c0.835,-1.258 1.554,-2.7 2.183,-4.313a176.415,176.415 0 0 0 1.803,-4.965l16.69,-45.103c0.278,-0.83 0.57,-1.612 0.848,-2.396c0.296,-0.798 0.543,-1.629 0.741,-2.476m54.154,26.722zm-3.69,13.314c-1.703,3.58 -3.923,6.135 -6.695,7.796c-2.81,1.678 -5.856,2.514 -9.226,2.516l-0.016,0c-2.633,-0.003 -5.021,-0.501 -7.192,-1.475c-2.175,-0.968 -4.085,-2.423 -5.792,-4.397c-1.67,-1.946 -2.987,-4.433 -3.935,-7.492c-0.931,-3.035 -1.408,-6.45 -1.408,-10.266l0,-0.015l0.002,-0.029c0.007,-3.797 0.492,-7.194 1.433,-10.19c0.957,-3.015 2.24,-5.44 3.822,-7.3c1.603,-1.889 3.486,-3.304 5.694,-4.288c2.201,-0.975 4.6,-1.473 7.224,-1.473l0,-0.002c3.775,0.015 6.987,0.918 9.805,2.695c2.81,1.776 4.961,4.372 6.514,7.915c1.538,3.515 2.32,7.729 2.32,12.645c0,0.036 0.002,0.061 0.003,0.077c-0.014,5.331 -0.882,9.758 -2.552,13.283l-0.001,0zm14.905,-32.589c-2.711,-5.547 -6.746,-9.882 -12.043,-12.898c-5.302,-3.02 -11.617,-4.519 -18.884,-4.529l-0.084,0c-5.342,0 -10.16,0.836 -14.424,2.536c-4.267,1.702 -7.92,4.175 -10.92,7.405c-2.99,3.23 -5.27,7.155 -6.833,11.711c-1.57,4.557 -2.349,9.55 -2.36,14.962c-0.003,0.068 0,0.1 -0.002,0.1c0,5.257 0.741,10.172 2.215,14.742c1.49,4.595 3.716,8.565 6.667,11.87c2.958,3.313 6.652,5.879 11.045,7.682c4.402,1.813 9.36,2.713 14.87,2.722c0.054,-0.002 0.07,0 0.07,0c5.483,0 10.4,-0.865 14.738,-2.6c4.34,-1.758 8.029,-4.305 11.022,-7.64c2.99,-3.322 5.232,-7.247 6.716,-11.76c1.49,-4.497 2.228,-9.471 2.235,-14.915l0,-0.074l-0.003,-0.013c0,-7.322 -1.325,-13.769 -4.025,-19.3l0,-0.001z" id="svg_3"/>
   <g id="svg_4">
    <mask transform="translate(0,1) translate(1,0) translate(0,-1) translate(0,1) translate(0,1) " id="b">
     <use xlink:href="#a" id="svg_5"/>
    </mask>
    <path fill="#E67C39" d="m231.135,2.757l-1.646,6.301l-1.627,-6.306l-2.863,-0.002l-0.011,9.144l1.717,0l0.008,-7.29l1.933,7.292l1.638,0.003l1.978,-7.287l-0.012,7.29l1.742,0.003l0.012,-9.144l-2.869,-0.004z" mask="url(#b)" id="svg_6"/>
    <mask transform="translate(0,1) translate(1,0) translate(0,-1) translate(0,1) translate(0,1) " id="d">
     <use xlink:href="#c" id="svg_7"/>
    </mask>
    <path fill="#E67C39" d="m216.567,4.337l2.803,0.003l-0.011,7.545l1.83,0.002l0.01,-7.546l2.717,0.004l0,-1.598l-7.346,-0.01l-0.003,1.6z" mask="url(#d)" id="svg_8"/>
   </g>
   <text xml:space="preserve" text-anchor="start" font-family="Oswald, sans-serif" font-size="16" id="svg_11" y="96.5" x="0.5" fill-opacity="null" stroke-opacity="null" stroke-width="0" stroke="null" fill="#494949">HELIOS VERSION</text>
  </g>
 </g>
</svg>
